<svg version="1.1" viewBox="0.0 0.0 105.24409448818898 100.0" fill="none" stroke="none" stroke-linecap="square" stroke-miterlimit="10" xmlns:xlink="http://www.w3.org/1999/xlink" xmlns="http://www.w3.org/2000/svg"><clipPath id="p.0"><path d="m0 0l105.244095 0l0 100.0l-105.244095 0l0 -100.0z" clip-rule="nonzero"/></clipPath><g clip-path="url(#p.0)"><path fill="#000000" fill-opacity="0.0" d="m0 0l105.244095 0l0 100.0l-105.244095 0z" fill-rule="evenodd"/><path fill="#000000" fill-opacity="0.0" d="m36.244602 87.937004c-6.984152 0 -12.645924 -5.661766 -12.645924 -12.64592l0 -12.645161c0 -6.98415 -5.661772 -12.645924 -12.645923 -12.645924c6.984151 0 12.645923 -5.6617737 12.645923 -12.645924l0 -12.645163l0 0c0 -6.98415 5.661772 -12.645922 12.645924 -12.645922l32.754894 0c3.3539047 0 6.570442 1.3323345 8.942017 3.703905c2.3715668 2.3715706 3.7039032 5.58811 3.7039032 8.942017l0 12.645163c0 6.98415 5.6617737 12.645924 12.64592 12.645924l0 0c-6.984146 0 -12.64592 5.6617737 -12.64592 12.645924l0 12.645161c0 6.9841537 -5.6617737 12.64592 -12.64592 12.64592z" fill-rule="evenodd"/><path fill="#000000" fill-opacity="0.0" d="m36.244602 87.937004c-6.984152 0 -12.645924 -5.661766 -12.645924 -12.64592l0 -12.645161c0 -6.98415 -5.661772 -12.645924 -12.645923 -12.645924c6.984151 0 12.645923 -5.6617737 12.645923 -12.645924l0 -12.645163l0 0c0 -6.98415 5.661772 -12.645922 12.645924 -12.645922m32.754894 0c3.3539047 0 6.570442 1.3323345 8.942017 3.703905c2.3715668 2.3715706 3.7039032 5.58811 3.7039032 8.942017l0 12.645163c0 6.98415 5.6617737 12.645924 12.64592 12.645924l0 0c-6.984146 0 -12.64592 5.6617737 -12.64592 12.645924l0 12.645161c0 6.9841537 -5.6617737 12.64592 -12.64592 12.64592" fill-rule="evenodd"/><path stroke="#000000" stroke-width="8.0" stroke-linejoin="round" stroke-linecap="butt" d="m36.244602 87.937004c-6.984152 0 -12.645924 -5.661766 -12.645924 -12.64592l0 -12.645161c0 -6.98415 -5.661772 -12.645924 -12.645923 -12.645924c6.984151 0 12.645923 -5.6617737 12.645923 -12.645924l0 -12.645163l0 0c0 -6.98415 5.661772 -12.645922 12.645924 -12.645922m32.754894 0c3.3539047 0 6.570442 1.3323345 8.942017 3.703905c2.3715668 2.3715706 3.7039032 5.58811 3.7039032 8.942017l0 12.645163c0 6.98415 5.6617737 12.645924 12.64592 12.645924l0 0c-6.984146 0 -12.64592 5.6617737 -12.64592 12.645924l0 12.645161c0 6.9841537 -5.6617737 12.64592 -12.64592 12.64592" fill-rule="evenodd"/></g></svg>